<svg id="icon" xmlns="http://www.w3.org/2000/svg" width="40" height="40" viewBox="0 0 40 40">
  <rect id="Rectangle_2" data-name="Rectangle 2" width="40" height="40" rx="4" fill="#f7df1e"/>
  <path id="Tracé_7" data-name="Tracé 7" d="M178.739,296.2a3.222,3.222,0,0,0,2.918,1.8c1.226,0,2.009-.613,2.009-1.459,0-1.014-.8-1.374-2.154-1.964l-.74-.317c-2.135-.91-3.553-2.049-3.553-4.458,0-2.219,1.691-3.908,4.333-3.908a4.373,4.373,0,0,1,4.208,2.369l-2.3,1.479a2.012,2.012,0,0,0-1.9-1.268,1.287,1.287,0,0,0-1.416,1.268c0,.888.55,1.247,1.819,1.8l.74.317c2.514,1.078,3.933,2.177,3.933,4.647,0,2.664-2.092,4.123-4.9,4.123a5.684,5.684,0,0,1-5.391-3.025Zm-10.451.256c.465.825.888,1.522,1.9,1.522.972,0,1.585-.38,1.585-1.859v-10.06h2.958v10.1c0,3.063-1.8,4.458-4.418,4.458a4.593,4.593,0,0,1-4.438-2.7Z" transform="translate(-149.59 -263.603)"/>
</svg>
