<svg id="icon" xmlns="http://www.w3.org/2000/svg" width="27.423" height="32" viewBox="0 0 27.423 32">
  <path id="Tracé_35" data-name="Tracé 35" d="M19.566,18.164l.088,2.027-1.41,2.644-2.2,4.318L15.6,30.767l1.586,5.112L20.8,37.906h5.464l5.112-3.878,2.291-6.081-5.288-6.434-1.5-3.613Z" transform="translate(-9.682 -9.1)" fill="#eceff1" stroke="#000" stroke-width="0"/>
  <path id="Tracé_36" data-name="Tracé 36" d="M31.873,22c-1.41-2.027-2.556-3.261-3.173-5.817s.176-1.851-.353-4.054A6.922,6.922,0,0,0,27.2,9.576a3.345,3.345,0,0,0-1.5-1.058,5.006,5.006,0,0,0-4.935.088c-2.38,1.234-2.115,3.878-1.675,9.254a2.714,2.714,0,0,1-.264,1.146,9.159,9.159,0,0,1-1.5,2.115,17.469,17.469,0,0,0-1.675,2.732c-1.058,2.027-2.027,4.583-1.763,5.552.441-.088,5.993,8.373,5.993,8.549a27.7,27.7,0,0,1,3.173-.088,14.307,14.307,0,0,1,4.407.176c0-.264-.088-.529-.088-.793a10.9,10.9,0,0,1,.176-1.586c.088-.441.176-.881.264-1.41a8.822,8.822,0,0,1-3.966,1.939,5.166,5.166,0,0,1-4.583-1.5.53.53,0,0,0,.353-.088c.264-.088.529-.176.617-.353a1.05,1.05,0,0,0-.088-1.146c-.176-.264-1.5-1.234-2.115-1.763s-.969-.793-1.322-1.146l-.705-.705c-.176-.176-.264-.353-.353-.441a3.272,3.272,0,0,1-.176-1.675,7.214,7.214,0,0,1,.881-2.644c.176-.353.617-1.058.617-1.058s-1.5,3.7-.705,4.847a11.962,11.962,0,0,1,.441-2.291,8.589,8.589,0,0,1,1.234-2.556,10.338,10.338,0,0,0,1.939-4.318c0-.617.088-1.234.088-1.675-.353-.353,5.817-1.234,6.169-.264.088.353,1.322,3.525,2.027,5.2A19.448,19.448,0,0,1,29.229,25a14.472,14.472,0,0,1,.441,3.613,5.85,5.85,0,0,1-.088,1.146c.176,0,3.613-3.7-.441-6.786,0,0,2.468,1.146,2.556,3.437a6.781,6.781,0,0,1-.881,3.613c.088,0,1.851.793,1.939.793a4.394,4.394,0,0,0,1.058-.264,6.492,6.492,0,0,0,.353-1.234C34.781,27.291,33.283,24.03,31.873,22Z" transform="translate(-9.474 -7.915)" fill="#263238" stroke="#000" stroke-width="0"/>
  <g id="Groupe_21" data-name="Groupe 21" transform="translate(10.061 4.393)">
    <ellipse id="Ellipse_2" data-name="Ellipse 2" cx="1.146" cy="1.763" rx="1.146" ry="1.763" transform="translate(0 0.353)" fill="#eceff1" stroke="#000" stroke-width="0"/>
    <ellipse id="Ellipse_3" data-name="Ellipse 3" cx="1.498" cy="2.027" rx="1.498" ry="2.027" transform="translate(3.613)" fill="#eceff1" stroke="#000" stroke-width="0"/>
  </g>
  <g id="Groupe_22" data-name="Groupe 22" transform="translate(10.49 5.58)">
    <ellipse id="Ellipse_4" data-name="Ellipse 4" cx="1.058" cy="0.617" rx="1.058" ry="0.617" transform="translate(0.265 2.253) rotate(-97.204)" fill="#212121" stroke="#000" stroke-width="0"/>
    <ellipse id="Ellipse_5" data-name="Ellipse 5" cx="0.881" cy="1.146" rx="0.881" ry="1.146" transform="translate(3.713 0.047)" fill="#212121" stroke="#000" stroke-width="0"/>
  </g>
  <g id="Groupe_23" data-name="Groupe 23" transform="translate(0 7.126)">
    <path id="Tracé_37" data-name="Tracé 37" d="M38.078,37.054a3.379,3.379,0,0,1-1.5-1.234c-.264-.441-.176-1.675-.617-2.2a.611.611,0,0,0-.705-.176c-.793.176-2.644,1.41-3.878,0A1.209,1.209,0,0,0,30.5,33a.771.771,0,0,0-.793.529,3.052,3.052,0,0,0-.176,1.5,16.29,16.29,0,0,1-.088,2.115C29.264,38.64,29,39.522,29,40.4a2.286,2.286,0,0,0,.617,1.851,2.228,2.228,0,0,0,1.675.441,2.864,2.864,0,0,0,2.2-.969,16.816,16.816,0,0,1,2.027-1.5c.969-.617,2.468-1.41,2.732-1.675.176-.176.441-.264.441-.793A.757.757,0,0,0,38.078,37.054Z" transform="translate(-11.272 -18.018)" fill="#ffc107" stroke="#000" stroke-width="0"/>
    <path id="Tracé_38" data-name="Tracé 38" d="M17.976,37.212c-.881-1.41-.969-1.675-1.586-2.556-.529-.881-1.675-2.556-2.38-2.556a1.507,1.507,0,0,0-1.146.617A9.646,9.646,0,0,1,11.542,34.3c-.529.441-2.027.353-2.38.881s.353,1.322.353,2.644c0,.529-.441.881-.529,1.234a1.455,1.455,0,0,0,0,1.058c.353.529.793.705,3.79,1.322,1.586.353,3.085,1.234,4.054,1.322s2.644,0,2.644-2.38C19.562,38.974,18.769,38.622,17.976,37.212Z" transform="translate(-8.885 -17.911)" fill="#ffc107" stroke="#000" stroke-width="0"/>
    <path id="Tracé_39" data-name="Tracé 39" d="M20.969,19.349C20.441,19,20,18.644,20,18.115s.353-.705.881-1.146A3.524,3.524,0,0,1,22.908,16a7.288,7.288,0,0,1,2.556.793c.793.176,1.586.353,1.5.969-.088.881-.176,1.058-1.058,1.5-.617.176-1.763,1.146-2.556,1.146a5.818,5.818,0,0,1-1.234-.088A4.708,4.708,0,0,1,20.969,19.349Z" transform="translate(-10.204 -16)" fill="#ffc107" stroke="#000" stroke-width="0"/>
  </g>
  <g id="Groupe_24" data-name="Groupe 24" transform="translate(10.036 7.742)">
    <path id="Tracé_40" data-name="Tracé 40" d="M20.825,18.841a1.919,1.919,0,0,0,.705.441,4.15,4.15,0,0,0,.441.176h.793a3.636,3.636,0,0,0,1.675-.529c.617-.264.705-.441,1.146-.617.441-.264.881-.529.705-.617s-.353,0-.969.353a12.31,12.31,0,0,1-1.5.793,3.358,3.358,0,0,1-.881.264h-.793a2.074,2.074,0,0,1-.705-.176c-.176-.088-.264-.176-.353-.176-.176-.088-.529-.441-.705-.529,0,0-.176,0-.088.088Z" transform="translate(-20.272 -16.814)" fill="#634703" stroke="#000" stroke-width="0"/>
    <path id="Tracé_41" data-name="Tracé 41" d="M23.9,16.792c.088.176.264.176.353.264a.273.273,0,0,0,.176.088.169.169,0,0,0-.088-.264C24.341,16.7,23.9,16.7,23.9,16.792Z" transform="translate(-20.703 -16.704)" fill="#634703" stroke="#000" stroke-width="0"/>
    <path id="Tracé_42" data-name="Tracé 42" d="M22.3,16.964c0,.088.176.176.176.088.088-.088.176-.176.264-.176.176-.088.088-.176-.176-.176C22.388,16.788,22.388,16.876,22.3,16.964Z" transform="translate(-20.513 -16.7)" fill="#634703" stroke="#000" stroke-width="0"/>
  </g>
  <path id="Tracé_43" data-name="Tracé 43" d="M31.953,34.484v.264a1.033,1.033,0,0,0,.969.441,1.8,1.8,0,0,0,1.322-.705c0-.088.088-.176.176-.264a5.22,5.22,0,0,1,.353-.529.308.308,0,0,1-.088-.176,1.087,1.087,0,0,0-.705-.441A3.879,3.879,0,0,0,33.1,32.9a1.7,1.7,0,0,0-1.5.441.086.086,0,0,1,.088.088.8.8,0,0,1,.264.617C32.041,34.22,31.953,34.308,31.953,34.484Z" transform="translate(-11.58 -10.878)" fill="#455a64" stroke="#000" stroke-width="0"/>
</svg>
