<svg xmlns="http://www.w3.org/2000/svg" width="20" height="20" viewBox="0 0 20 20">
  <g id="logo" transform="translate(15 -25.079)">
    <rect id="container" width="20" height="20" transform="translate(-15 25.079)" fill="none"/>
    <g id="icon" transform="translate(-15 -0.272)">
      <path id="Tracé_62" data-name="Tracé 62" d="M35.124,45.809c-1.51-1.51-3.122-.533-4.132.477L21.459,55.82c-1.009,1.009-2.066,2.542-.477,4.131s3.122.533,4.131-.477l9.534-9.534C35.657,48.931,36.634,47.319,35.124,45.809Z" transform="translate(-18.009 -17.573)" fill="#fff"/>
      <path id="Tracé_63" data-name="Tracé 63" d="M70.92,27.846l2.019,2.019,2.055-2.055c.14-.14.281-.27.424-.392a2.521,2.521,0,0,0-4.96.006C70.611,27.557,70.764,27.691,70.92,27.846Z" transform="translate(-62.913 0)" fill="#fff"/>
      <path id="Tracé_64" data-name="Tracé 64" d="M75.047,171.583l-2.054-2.054-2.018,2.018c-.153.153-.306.293-.458.425a2.5,2.5,0,0,0,4.951-.009C75.327,171.841,75.186,171.722,75.047,171.583Z" transform="translate(-62.968 -128.741)" fill="#fff"/>
      <path id="Tracé_65" data-name="Tracé 65" d="M7.15,94.364H3.258c-1.427,0-3.258.45-3.258,2.584a2.372,2.372,0,0,0,2.13,2.477C2.262,99.273,7.15,94.364,7.15,94.364Z" transform="translate(0 -61.624)" fill="#fff"/>
      <path id="Tracé_66" data-name="Tracé 66" d="M125.55,95.332c-.123.143-5.022,5.065-5.022,5.065h3.837c1.427,0,3.258-.337,3.258-2.584A2.3,2.3,0,0,0,125.55,95.332Z" transform="translate(-107.623 -62.488)" fill="#fff"/>
      <path id="Tracé_67" data-name="Tracé 67" d="M26.432,49.044l.7-.7L25.11,46.331c-1.009-1.009-2.542-2.066-4.131-.477a2.3,2.3,0,0,0-.288,3.22C20.879,49.06,26.432,49.044,26.432,49.044Z" transform="translate(-18.007 -17.582)" fill="#fff"/>
      <path id="Tracé_68" data-name="Tracé 68" d="M102.757,154.331l-.7.7,2.055,2.055c1.009,1.009,2.622,1.986,4.131.477a2.372,2.372,0,0,0,.245-3.257C108.291,154.316,102.757,154.331,102.757,154.331Z" transform="translate(-91.133 -115.144)" fill="#fff"/>
    </g>
  </g>
</svg>
