<svg id="icon" xmlns="http://www.w3.org/2000/svg" width="28.416" height="32.019" viewBox="0 0 28.416 32.019">
  <path id="Tracé_20" data-name="Tracé 20" d="M14.208,32.019a2.579,2.579,0,0,1-1.235-.324L9.06,29.372c-.588-.324-.294-.441-.118-.5a7.123,7.123,0,0,0,1.765-.794.271.271,0,0,1,.294.029L14,29.9a.374.374,0,0,0,.353,0l11.737-6.8a.338.338,0,0,0,.176-.324V9.222a.338.338,0,0,0-.176-.324L14.355,2.133a.374.374,0,0,0-.353,0L2.265,8.9a.369.369,0,0,0-.176.324V22.783a.369.369,0,0,0,.176.324l3.206,1.853c1.736.883,2.824-.147,2.824-1.177V10.4a.358.358,0,0,1,.353-.353h1.5a.358.358,0,0,1,.353.353V23.783c0,2.324-1.265,3.677-3.471,3.677a5.046,5.046,0,0,1-2.706-.735L1.235,24.959A2.482,2.482,0,0,1,0,22.812V9.251A2.483,2.483,0,0,1,1.235,7.1L12.972.309a2.625,2.625,0,0,1,2.471,0L27.18,7.1a2.483,2.483,0,0,1,1.235,2.147V22.812a2.482,2.482,0,0,1-1.235,2.147l-11.737,6.8a3.011,3.011,0,0,1-1.235.265Zm3.618-9.325c-5.148,0-6.207-2.353-6.207-4.353a.358.358,0,0,1,.353-.353H13.5a.3.3,0,0,1,.324.294c.235,1.559.912,2.324,4.03,2.324,2.471,0,3.53-.559,3.53-1.883,0-.765-.294-1.324-4.148-1.706-3.206-.324-5.207-1.03-5.207-3.589,0-2.383,2-3.795,5.354-3.795,3.765,0,5.618,1.294,5.854,4.118a.474.474,0,0,1-.088.265.363.363,0,0,1-.235.118h-1.53a.345.345,0,0,1-.324-.265c-.353-1.618-1.265-2.147-3.677-2.147-2.706,0-3.03.941-3.03,1.647,0,.853.382,1.118,4.03,1.589,3.618.471,5.324,1.147,5.324,3.677-.029,2.589-2.147,4.059-5.883,4.059Z" transform="translate(0 0)" fill="#539e43"/>
</svg>
