<svg id="icon" xmlns="http://www.w3.org/2000/svg" xmlns:xlink="http://www.w3.org/1999/xlink" width="32" height="16.217" viewBox="0 0 32 16.217">
  <defs>
    <clipPath id="clip-path">
      <path id="path3470" d="M0-405H32v16.217H0Z" transform="translate(0 405)"/>
    </clipPath>
    <clipPath id="clip-path-2">
      <path id="path3482" d="M0-405H30.889v14.578H0Z" transform="translate(0 405)"/>
    </clipPath>
  </defs>
  <g id="g3464">
    <g id="g3466" transform="translate(0 0)" clip-path="url(#clip-path)">
      <g id="g3472" transform="translate(0 0)">
        <path id="path3474" d="M-316.1-320.386c8.836,0,16-3.63,16-8.108s-7.164-8.108-16-8.108-16,3.63-16,8.108,7.164,8.108,16,8.108" transform="translate(332.1 336.603)" fill="#777bb3"/>
      </g>
    </g>
  </g>
  <g id="g3476" transform="translate(0.469 0.536)">
    <g id="g3478" transform="translate(0 0)" clip-path="url(#clip-path-2)">
      <g id="g3484" transform="translate(3.96 3.524)">
        <path id="path3486" d="M-78.6-99.962a2.658,2.658,0,0,0,1.61-.4,2.144,2.144,0,0,0,.7-1.341,1.44,1.44,0,0,0-.13-1.22,1.821,1.821,0,0,0-1.317-.341H-78.9l-.643,3.3ZM-82.4-95.9a.18.18,0,0,1-.139-.065.179.179,0,0,1-.038-.149l1.7-8.742a.18.18,0,0,1,.177-.146h3.672a3.236,3.236,0,0,1,2.553.929,2.9,2.9,0,0,1,.5,2.574,4.1,4.1,0,0,1-.442,1.224,4.1,4.1,0,0,1-.813,1.015,3.567,3.567,0,0,1-1.337.8,6.074,6.074,0,0,1-1.837.236h-1.487l-.425,2.178a.18.18,0,0,1-.177.146Z" transform="translate(82.578 105)"/>
      </g>
      <g id="g3488" transform="translate(3.78 3.344)">
        <path id="path3490" d="M-79.187-41.651h1.011c.807,0,1.088.177,1.183.282a1.318,1.318,0,0,1,.086,1.066,1.976,1.976,0,0,1-.629,1.232,2.493,2.493,0,0,1-1.5.359h-.724Zm1.734-2.1h-3.672a.361.361,0,0,0-.354.291l-1.7,8.742a.359.359,0,0,0,.076.3.361.361,0,0,0,.278.131h1.91a.361.361,0,0,0,.354-.291l.4-2.033h1.338a6.25,6.25,0,0,0,1.893-.245,3.747,3.747,0,0,0,1.4-.839,4.282,4.282,0,0,0,.847-1.059,4.281,4.281,0,0,0,.461-1.278,3.063,3.063,0,0,0-.539-2.727,3.405,3.405,0,0,0-2.689-.99m-2.745,5.4h1.162a2.811,2.811,0,0,0,1.72-.434,2.3,2.3,0,0,0,.763-1.449,1.584,1.584,0,0,0-.173-1.375,1.957,1.957,0,0,0-1.451-.4h-1.308l-.713,3.659m2.745-5.038a3.055,3.055,0,0,1,2.417.867,2.716,2.716,0,0,1,.457,2.422A3.907,3.907,0,0,1-75-38.931a3.906,3.906,0,0,1-.777.971,3.375,3.375,0,0,1-1.271.76,5.869,5.869,0,0,1-1.782.227h-1.636l-.453,2.324h-1.91l1.7-8.742h3.672" transform="translate(83.189 43.75)" fill="#fff"/>
      </g>
      <g id="g3492" transform="translate(12.089 1.2)">
        <path id="path3494" d="M-96.081-180.586a.18.18,0,0,1-.139-.065.179.179,0,0,1-.038-.149l.754-3.868c.072-.368.054-.632-.05-.743-.064-.068-.254-.183-.818-.183h-1.365l-.948,4.862a.18.18,0,0,1-.177.146h-1.895a.181.181,0,0,1-.139-.065.179.179,0,0,1-.038-.149l1.7-8.742a.18.18,0,0,1,.177-.146h1.895a.181.181,0,0,1,.139.065.18.18,0,0,1,.038.149l-.411,2.11h1.469a3.417,3.417,0,0,1,2.32.6,2,2,0,0,1,.418,1.962l-.793,4.068a.18.18,0,0,1-.177.146Z" transform="translate(100.938 189.688)"/>
      </g>
      <g id="g3496" transform="translate(11.909 1.02)">
        <path id="path3498" d="M-78.326,0h-1.895a.361.361,0,0,0-.354.291l-1.7,8.742a.359.359,0,0,0,.076.3.361.361,0,0,0,.278.131h1.895a.361.361,0,0,0,.354-.291l.919-4.717h1.217c.563,0,.681.12.686.125.034.037.079.206,0,.587L-77.6,9.033a.359.359,0,0,0,.076.3.361.361,0,0,0,.278.131h1.925a.361.361,0,0,0,.354-.291l.793-4.068a2.162,2.162,0,0,0-.473-2.129,3.574,3.574,0,0,0-2.442-.649h-1.25l.369-1.9a.359.359,0,0,0-.076-.3A.361.361,0,0,0-78.326,0m0,.36-.453,2.324h1.688a3.293,3.293,0,0,1,2.2.554,1.829,1.829,0,0,1,.363,1.8L-75.324,9.1h-1.925l.754-3.868q.129-.66-.095-.9a1.334,1.334,0,0,0-.951-.24h-1.514L-80.03,9.1h-1.895l1.7-8.742h1.895" transform="translate(82.285)" fill="#fff"/>
      </g>
      <g id="g3500" transform="translate(18.865 3.524)">
        <path id="path3502" d="M-78.6-99.962a2.658,2.658,0,0,0,1.61-.4,2.144,2.144,0,0,0,.7-1.341,1.44,1.44,0,0,0-.13-1.22,1.821,1.821,0,0,0-1.317-.341H-78.9l-.643,3.3ZM-82.4-95.9a.18.18,0,0,1-.139-.065.179.179,0,0,1-.038-.149l1.7-8.742a.18.18,0,0,1,.177-.146h3.672a3.236,3.236,0,0,1,2.553.929,2.9,2.9,0,0,1,.5,2.574,4.1,4.1,0,0,1-.442,1.224,4.1,4.1,0,0,1-.813,1.015,3.567,3.567,0,0,1-1.337.8,6.074,6.074,0,0,1-1.837.236h-1.487l-.424,2.178a.18.18,0,0,1-.177.146Z" transform="translate(82.578 105)"/>
      </g>
      <g id="g3504" transform="translate(18.685 3.344)">
        <path id="path3506" d="M-79.185-41.651h1.011c.807,0,1.088.177,1.183.282a1.318,1.318,0,0,1,.086,1.066,1.977,1.977,0,0,1-.629,1.232,2.493,2.493,0,0,1-1.5.359h-.724Zm1.734-2.1h-3.672a.361.361,0,0,0-.354.291l-1.7,8.742a.359.359,0,0,0,.076.3.361.361,0,0,0,.278.131h1.91a.361.361,0,0,0,.354-.291l.4-2.033h1.338a6.25,6.25,0,0,0,1.893-.245,3.747,3.747,0,0,0,1.4-.839,4.28,4.28,0,0,0,.847-1.059,4.281,4.281,0,0,0,.461-1.278,3.063,3.063,0,0,0-.539-2.727,3.405,3.405,0,0,0-2.689-.99m-2.744,5.4h1.162a2.811,2.811,0,0,0,1.72-.434,2.3,2.3,0,0,0,.763-1.449,1.583,1.583,0,0,0-.173-1.375,1.957,1.957,0,0,0-1.451-.4h-1.308l-.713,3.659m2.744-5.038a3.055,3.055,0,0,1,2.417.867,2.716,2.716,0,0,1,.457,2.422A3.907,3.907,0,0,1-75-38.931a3.906,3.906,0,0,1-.777.971,3.375,3.375,0,0,1-1.271.76,5.869,5.869,0,0,1-1.782.227h-1.636l-.453,2.324h-1.91l1.7-8.742h3.672" transform="translate(83.188 43.75)" fill="#fff"/>
      </g>
    </g>
  </g>
</svg>
