<svg xmlns="http://www.w3.org/2000/svg" width="32" height="19.085" viewBox="0 0 32 19.085">
  <path id="tailwind" d="M16,0Q9.6,0,8,6.362q2.4-3.181,5.6-2.386a6.815,6.815,0,0,1,3.05,2.152C18.219,7.711,20.035,9.542,24,9.542q6.4,0,8-6.361-2.4,3.181-5.6,2.385A6.816,6.816,0,0,1,23.35,3.415C21.781,1.831,19.966,0,16,0ZM8,9.542q-6.4,0-8,6.362,2.4-3.181,5.6-2.386A6.813,6.813,0,0,1,8.65,15.67c1.569,1.583,3.384,3.414,7.35,3.414q6.4,0,8-6.361-2.4,3.181-5.6,2.386a6.824,6.824,0,0,1-3.05-2.152C13.781,11.375,11.965,9.542,8,9.542Z" fill="#06b6d4" fill-rule="evenodd"/>
</svg>
