<svg xmlns="http://www.w3.org/2000/svg" width="20" height="20" viewBox="0 0 20 20">
  <g id="logo" transform="translate(15 -25.079)">
    <rect id="container" width="20" height="20" transform="translate(-15 25.079)" fill="none"/>
    <g id="icon" transform="translate(-555.179 -542.779)">
      <path id="path3611" d="M546.469,586.112a11.6,11.6,0,0,0,11.675-11.675q0-.266-.012-.53a8.346,8.346,0,0,0,2.047-2.125,8.18,8.18,0,0,1-2.356.646,4.117,4.117,0,0,0,1.8-2.27,8.229,8.229,0,0,1-2.606,1,4.107,4.107,0,0,0-6.992,3.742,11.65,11.65,0,0,1-8.458-4.287,4.107,4.107,0,0,0,1.27,5.478,4.073,4.073,0,0,1-1.858-.513c0,.017,0,.034,0,.052a4.1,4.1,0,0,0,3.292,4.022,4.1,4.1,0,0,1-1.853.07,4.108,4.108,0,0,0,3.833,2.85,8.232,8.232,0,0,1-5.1,1.756,8.327,8.327,0,0,1-.979-.057,11.615,11.615,0,0,0,6.29,1.843" fill="#fff"/>
    </g>
  </g>
</svg>
